P1
#
7 7
0011000
0001000
0001000
1001001
0101010
0011100
0001000
