P1
#
7 7
0001000
0010000
0100001
1111111
0100000
0010000
0001000
