P1
#
7 7
0001000
0011100
0101010
1001001
0001000
0001000
0001100
